<?xml version="1.0" encoding="UTF-8"?>
<svg id="OBJECTS" xmlns="http://www.w3.org/2000/svg" xmlns:xlink="http://www.w3.org/1999/xlink" viewBox="0 0 368.65 242.13">
  <defs>
    <style>
      .cls-1 {
        fill: url(#linear-gradient);
      }
    </style>
    <linearGradient id="linear-gradient" x1="0" y1="121.06" x2="368.65" y2="121.06" gradientUnits="userSpaceOnUse">
      <stop offset=".27" stop-color="#d9b76f"/>
      <stop offset=".43" stop-color="#dbbb73"/>
      <stop offset=".6" stop-color="#e3c880"/>
      <stop offset=".77" stop-color="#f0de95"/>
      <stop offset=".85" stop-color="#f8eaa1"/>
    </linearGradient>
  </defs>
  <path class="cls-1" d="M332.55,120.14c-20.11-4.3-40.02,8.51-44.36,28.62-3.57,16.48,6.97,32.79,23.44,36.33,6.6,1.43,13.32.21,18.99-3.43,5.64-3.65,9.54-9.29,10.97-15.85,1.17-5.48.16-11.05-2.88-15.74-3.01-4.69-7.68-7.91-13.13-9.09-5.74-1.23-11.43.54-15.45,4.22-4.12,2.49-6.94,6.95-7.1,12.12-.25,8.14,6.12,14.95,14.26,15.21,8.15.25,14.96-6.1,15.22-14.24.07-2-.28-3.93-.94-5.69.38.43.74.89,1.06,1.41,1.99,3.04,2.64,6.69,1.87,10.26-1.02,4.7-3.77,8.68-7.82,11.3-4.03,2.61-8.82,3.46-13.5,2.47-12.59-2.72-20.63-15.16-17.9-27.74,3.5-16.21,19.52-26.58,35.76-23.07,20.74,4.48,34,25.01,29.5,45.76-4.21,19.54-19.66,34.43-39.31,37.95-3.61.64-23.87.18-39.85-.28,5.56-1.23,10.4-2.63,12.63-3.92,6.99-4.04,9.39-12.99,5.35-19.99-4.04-6.99-13.13-8.8-17.99-2.33-4.35,5.78-4.84,8.15-9.76,13.99-5.42,6.44-12.69,9.47-15.61,12.32-.85.63-1.4,1.64-1.43,2.79-.02,1.85,1.33,3.4,3.1,3.66.16.02.31.04.46.04,1.49.02,4.94.12,9.51.28,11.01.34,22.45.7,32.1.88,3.84,1.85,9.39,4.02,14.19,8.33,5.68,5.07,6.5,7.35,11.63,12.48,5.71,5.7,14.43,2.63,17.46-4.88,3.03-7.48-.6-16.01-8.1-19.02-.36-.13-.8-.29-1.27-.41,17.11-6.87,29.98-21.79,33.97-40.35,5.33-24.65-10.42-49.06-35.07-54.37ZM1.03,174.51c3.99,18.57,16.85,33.48,33.97,40.35-.47.12-.91.28-1.27.41-7.49,3.01-11.13,11.54-8.09,19.02,3.02,7.51,11.74,10.58,17.46,4.88,5.14-5.13,5.95-7.4,11.64-12.48,4.79-4.31,10.34-6.48,14.19-8.33,9.65-.18,21.09-.54,32.1-.88,4.57-.15,8.01-.26,9.51-.28.15,0,.3-.02.46-.04,1.77-.26,3.13-1.81,3.1-3.66-.03-1.14-.59-2.15-1.43-2.79-2.93-2.85-10.19-5.88-15.61-12.32-4.92-5.84-5.41-8.2-9.76-13.99-4.86-6.46-13.95-4.66-17.99,2.33-4.04,7-1.64,15.95,5.35,19.99,2.23,1.29,7.07,2.69,12.63,3.92-15.97.46-36.23.92-39.85.28-19.65-3.52-35.11-18.41-39.31-37.95-4.5-20.75,8.76-41.28,29.51-45.76,16.22-3.51,32.25,6.86,35.74,23.07,2.73,12.59-5.3,25.02-17.9,27.74-4.69.99-9.48.13-13.5-2.47-4.04-2.62-6.8-6.6-7.81-11.3-.77-3.57-.12-7.22,1.87-10.26.32-.52.67-.99,1.05-1.41-.66,1.76-1.01,3.69-.94,5.69.26,8.14,7.07,14.5,15.22,14.24,8.13-.26,14.51-7.07,14.26-15.21-.16-5.17-2.98-9.63-7.1-12.12-4.02-3.68-9.72-5.45-15.45-4.22-5.45,1.18-10.12,4.4-13.13,9.09-3.03,4.69-4.06,10.26-2.87,15.74,1.42,6.56,5.32,12.21,10.96,15.85,5.68,3.65,12.4,4.86,18.99,3.43,16.48-3.54,27.01-19.85,23.44-36.33-4.34-20.11-24.25-32.92-44.36-28.62-24.65,5.31-40.39,29.72-35.07,54.37ZM140.11,52.23L94.42,5.83l-45.28,46.4h90.97ZM176.92,0l-37.09,40.72L100.88,0h76.04ZM269,0l-40.46,40.72L187.73,0h81.27ZM137.58,52.23L182.84,5.83l45.69,46.4h-90.96ZM228.54,52.23l45.28-46.4,45.69,46.4h-90.97ZM226.27,62.01l-37.05,158.39h-11.18l-38.21-158.39h86.44ZM130.25,62.01l41.83,158.39L49.14,62.01h81.11ZM317.85,62.01l-122.66,158.39,41.55-158.39h81.11Z"/>
</svg>